<?xml version="1.0" encoding="iso-8859-1"?>
<!-- Generator: Adobe Illustrator 19.0.0, SVG Export Plug-In . SVG Version: 6.00 Build 0)  -->
<svg version="1.1" id="Layer_1" xmlns="http://www.w3.org/2000/svg" xmlns:xlink="http://www.w3.org/1999/xlink" x="0px" y="0px"
	 viewBox="0 0 504.935 504.935" style="enable-background:new 0 0 504.935 504.935;" xml:space="preserve">
<g>
	<path style="fill:#46F8FF;" d="M348.467,246.524c-11.07,0-21.507,2.732-30.699,7.535
		C326.96,249.256,337.398,246.524,348.467,246.524z"/>
	<path style="fill:#46F8FF;" d="M256.38,198.086l30.674,27.969c17.368-12.296,38.561-19.53,61.412-19.53
		c35.603,0,67.178,17.558,86.533,44.466V35.411L256.2,198.086H256.38z"/>
	<polygon style="fill:#9BFBFF;" points="435,35.411 0,35.411 217.5,233.181 	"/>
	<path style="fill:#00E7F0;" d="M301.894,360.511c0.152,0.149,0.308,0.293,0.461,0.44
		C302.202,360.803,302.046,360.659,301.894,360.511z"/>
	<path style="fill:#00E7F0;" d="M317.768,254.059c-21.272,11.114-35.834,33.38-35.834,58.998
		C281.934,287.44,296.496,265.173,317.768,254.059z"/>
	<path style="fill:#00E7F0;" d="M282.278,319.85c-0.044-0.435-0.064-0.878-0.1-1.315
		C282.214,318.973,282.234,319.415,282.278,319.85z"/>
	<path style="fill:#00E7F0;" d="M301.443,360.081c-0.147-0.147-0.284-0.303-0.43-0.451
		C301.159,359.778,301.296,359.934,301.443,360.081z"/>
	<path style="fill:#00E7F0;" d="M287.054,226.054l-30.674-27.969h-0.18l-38.7,35.095l-38.79-35.095L0,360.951h253.326
		c-7.282-14.407-11.391-30.679-11.391-47.894C241.934,277.166,259.776,245.366,287.054,226.054z"/>
	<polygon style="fill:#46F8FF;" points="0,35.411 0,360.951 178.71,198.086 	"/>
	<path style="fill:#005ECE;" d="M504.935,441.24l-68.362-68.362c-7.566,11.108-17.176,20.718-28.284,28.284l68.362,68.362
		L504.935,441.24z"/>
	<path style="fill:#46F8FF;" d="M348.467,379.59c36.686,0,66.533-29.847,66.533-66.533s-29.846-66.532-66.533-66.533V379.59z"/>
	<path style="fill:#9BFBFF;" d="M348.467,379.59V246.524c-11.07,0-21.507,2.733-30.699,7.535
		c-21.272,11.114-35.834,33.381-35.834,58.998c0,1.846,0.096,3.669,0.244,5.478c0.036,0.438,0.056,0.88,0.1,1.315
		c1.571,15.419,8.437,29.289,18.735,39.78c0.145,0.148,0.283,0.304,0.43,0.451s0.303,0.284,0.451,0.43
		c0.152,0.149,0.308,0.293,0.461,0.44c10.435,10.05,24.122,16.747,39.318,18.295c0.435,0.044,0.878,0.064,1.315,0.1
		C344.798,379.494,346.621,379.59,348.467,379.59z"/>
	<path style="fill:#2488FF;" d="M436.573,372.878C448.197,355.814,455,335.216,455,313.057c0-23.14-7.42-44.577-20-62.067
		c-19.355-26.908-50.931-44.466-86.533-44.466c-22.852,0-44.044,7.235-61.412,19.53c-27.278,19.312-45.12,51.112-45.12,87.002
		c0,17.215,4.11,33.487,11.391,47.894c17.566,34.753,53.614,58.639,95.141,58.639c22.159,0,42.758-6.804,59.822-18.427
		C419.398,393.596,429.007,383.987,436.573,372.878z M342.989,379.346c-0.438-0.036-0.88-0.056-1.315-0.1
		c-15.196-1.548-28.883-8.244-39.318-18.295c-0.153-0.147-0.31-0.291-0.461-0.44c-0.148-0.145-0.304-0.283-0.451-0.43
		s-0.284-0.303-0.43-0.451c-10.298-10.491-17.164-24.361-18.735-39.78c-0.044-0.435-0.064-0.878-0.1-1.315
		c-0.148-1.809-0.244-3.632-0.244-5.478c0-25.617,14.562-47.884,35.834-58.998c9.192-4.802,19.63-7.535,30.699-7.535
		c36.687,0,66.533,29.846,66.533,66.533s-29.846,66.533-66.533,66.533C346.621,379.59,344.798,379.494,342.989,379.346z"/>
</g>
<g>
</g>
<g>
</g>
<g>
</g>
<g>
</g>
<g>
</g>
<g>
</g>
<g>
</g>
<g>
</g>
<g>
</g>
<g>
</g>
<g>
</g>
<g>
</g>
<g>
</g>
<g>
</g>
<g>
</g>
</svg>
